<svg xmlns="http://www.w3.org/2000/svg" width="24" height="24" viewBox="0 0 24 24"><defs><style>.a{fill:#6987a1;}.b{fill:#76b833;}</style></defs><g transform="translate(-309.709 -35)"><path class="a" d="M618.37,193.909a1.805,1.805,0,1,1-1.8,1.805A1.807,1.807,0,0,1,618.37,193.909Z" transform="translate(-299.723 -145.081)"/><path class="b" d="M559.832,81.9c5.64.172,10.267-5.853,8.641-11.267-1.265-4.911-7.069-8.074-11.868-6.057-4.779,1.746-7.276,7.962-4.739,12.459A9.005,9.005,0,0,0,559.832,81.9Zm-.338,3.012c-6.819.029-12.6-6.731-11.554-13.483.695-6.549,7.494-11.616,13.984-10.293,6.358,1.051,11.1,7.83,9.623,14.2A12.076,12.076,0,0,1,559.494,84.911Z" transform="translate(-238.11 -25.924)"/></g></svg>