<svg xmlns="http://www.w3.org/2000/svg" width="64" height="64" viewBox="0 0 64 64"><defs><style>.a{fill:#6987a1;}.b{fill:#76b833;}</style></defs><g transform="translate(-309.709 -35)"><path class="a" d="M621.376,193.909a4.814,4.814,0,1,1-4.809,4.814A4.818,4.818,0,0,1,621.376,193.909Z" transform="translate(-287.831 -122.036)"/><path class="b" d="M579.855,116.856c15.04.459,27.38-15.609,23.043-30.047-3.374-13.1-18.852-21.532-31.647-16.151-12.745,4.655-19.4,21.233-12.637,33.225A24.015,24.015,0,0,0,579.855,116.856Zm-.9,8.033c-18.184.077-33.591-17.95-30.81-35.954C550,71.472,568.127,57.96,585.434,61.488c16.954,2.8,29.6,20.881,25.661,37.865C608.241,114.045,594.032,125.648,578.955,124.889Z" transform="translate(-238.11 -25.924)"/></g></svg>