<svg xmlns="http://www.w3.org/2000/svg" width="32" height="32" viewBox="0 0 32 32"><defs><style>.a{fill:#6987a1;}.b{fill:#76b833;}</style></defs><g transform="translate(-309.709 -35)"><path class="a" d="M618.971,193.909a2.407,2.407,0,1,1-2.4,2.407A2.409,2.409,0,0,1,618.971,193.909Z" transform="translate(-297.345 -140.472)"/><path class="b" d="M563.837,88.89c7.52.23,13.69-7.8,11.522-15.023-1.687-6.548-9.426-10.766-15.823-8.076-6.372,2.327-9.7,10.616-6.318,16.613A12.007,12.007,0,0,0,563.837,88.89Zm-.45,4.016c-9.092.039-16.8-8.975-15.405-17.977.927-8.732,9.991-15.488,18.645-13.724,8.477,1.4,14.8,10.441,12.83,18.932C578.03,87.485,570.925,93.286,563.386,92.907Z" transform="translate(-238.11 -25.924)"/></g></svg>